name D:\school\WTK\thesis\model\3dpredictsim\Results\debug\Pog_s1_tmt_bCst_d00_k1000_ig24_act_TTC_ia.mot
datacolumns 128
datarows 4
range 1.91303316 1.95129382
endheader
time	pelvis_tilt	pelvis_list	pelvis_rotation	pelvis_tx	pelvis_ty	pelvis_tz	hip_flexion_l	hip_adduction_l	hip_rotation_l	hip_flexion_r	hip_adduction_r	hip_rotation_r	knee_angle_l	knee_angle_r	ankle_angle_l	ankle_angle_r	subtalar_angle_l	subtalar_angle_r	tmt_angle_l	tmt_angle_r	mtp_angle_l	mtp_angle_r	lumbar_extension	lumbar_bending	lumbar_rotation	arm_flex_l	arm_add_l	arm_rot_l	arm_flex_r	arm_add_r	arm_rot_r	elbow_flex_l	elbow_flex_r	pro_sup_l	pro_sup_r	glut_med1_l/activation	glut_med2_l/activation	glut_med3_l/activation	glut_min1_l/activation	glut_min2_l/activation	glut_min3_l/activation	semimem_l/activation	semiten_l/activation	bifemlh_l/activation	bifemsh_l/activation	sar_l/activation	add_long_l/activation	add_brev_l/activation	add_mag1_l/activation	add_mag2_l/activation	add_mag3_l/activation	tfl_l/activation	pect_l/activation	grac_l/activation	glut_max1_l/activation	glut_max2_l/activation	glut_max3_l/activation	iliacus_l/activation	psoas_l/activation	quad_fem_l/activation	gem_l/activation	peri_l/activation	rect_fem_l/activation	vas_med_l/activation	vas_int_l/activation	vas_lat_l/activation	med_gas_l/activation	lat_gas_l/activation	soleus_l/activation	tib_post_l/activation	flex_dig_l/activation	flex_hal_l/activation	tib_ant_l/activation	per_brev_l/activation	per_long_l/activation	per_tert_l/activation	ext_dig_l/activation	ext_hal_l/activation	ercspn_l/activation	intobl_l/activation	extobl_l/activation	glut_med1_r/activation	glut_med2_r/activation	glut_med3_r/activation	glut_min1_r/activation	glut_min2_r/activation	glut_min3_r/activation	semimem_r/activation	semiten_r/activation	bifemlh_r/activation	bifemsh_r/activation	sar_r/activation	add_long_r/activation	add_brev_r/activation	add_mag1_r/activation	add_mag2_r/activation	add_mag3_r/activation	tfl_r/activation	pect_r/activation	grac_r/activation	glut_max1_r/activation	glut_max2_r/activation	glut_max3_r/activation	iliacus_r/activation	psoas_r/activation	quad_fem_r/activation	gem_r/activation	peri_r/activation	rect_fem_r/activation	vas_med_r/activation	vas_int_r/activation	vas_lat_r/activation	med_gas_r/activation	lat_gas_r/activation	soleus_r/activation	tib_post_r/activation	flex_dig_r/activation	flex_hal_r/activation	tib_ant_r/activation	per_brev_r/activation	per_long_r/activation	per_tert_r/activation	ext_dig_r/activation	ext_hal_r/activation	ercspn_r/activation	intobl_r/activation	extobl_r/activation	
          1.91303316	         -2.93017645	          1.41064660	         -9.24946825	          2.39129145	          0.85220406	          0.00285830	         33.76171074	          0.81725520	          0.35998708	        -16.73181129	         -3.42352383	          7.57030072	        -15.72127464	        -16.67775300	          9.64075934	         -9.82379273	         -2.02480227	         18.78387458	          0.02228320	          1.08565942	         -0.07864168	         29.88715754	          0.02953487	          1.12180241	          3.73281746	        -14.02878203	        -13.63711032	          9.17089441	          2.98536422	        -13.54905656	         18.09072338	         18.17126104	         48.64631373	         86.51662706	         86.51662706	          0.06829939	          0.06062705	          0.05000017	          0.06062817	          0.06062805	          0.06062757	          0.16063433	          0.06061071	          0.14710316	          0.06062796	          0.06062790	          0.09590344	          0.15892436	          0.11283410	          0.09968212	          0.12888752	          0.05000016	          0.07351409	          0.08186540	          0.05000023	          0.05000017	          0.16791199	          0.06062894	          0.06062831	          0.14849665	          0.24697864	          0.20172628	          0.06952228	          0.18218179	          0.17909751	          0.15946416	          0.06062791	          0.06062780	          0.05719234	          0.05000008	          0.06062359	          0.06062796	          0.63430605	          0.34674146	          0.20145105	          0.52310732	          0.60962848	          0.49107710	          0.05000027	          0.12043790	          0.10808901	          0.12105636	          0.07352079	          0.06024420	          0.16438917	          0.11683366	          0.08567138	          0.05000090	          0.05000010	          0.05000010	          0.05000034	          0.07364125	          0.12046040	          0.12842190	          0.05000120	          0.05000131	          0.05000033	          0.15375398	          0.08985857	          0.06059328	          0.05000171	          0.05000111	          0.05000061	          0.31184134	          0.48900704	          0.06618105	          0.05000102	          0.05886953	          0.28848050	          0.06062054	          0.05935417	          0.05000347	          0.13969382	          0.21006668	          0.05000004	          0.14325004	          0.18013675	          0.18987301	          0.20826086	          0.44556909	          0.34717584	          0.48655211	          0.37480674	          0.05000019	          0.05000006	          0.05000003	          0.06938009	
          1.92578671	         -2.92545888	          1.33512810	         -9.38632275	          2.41239349	          0.85069116	          0.00246852	         32.97550661	          1.09086792	          0.59065369	        -16.81244230	         -3.60023769	          7.34537810	        -16.10186874	        -18.23922241	          8.82292078	        -12.78511384	         -2.38245455	         19.00118854	          0.01436582	          0.76798033	         -0.03572763	         30.90232401	          0.31971753	          0.96407761	          3.83896326	        -15.57693654	        -13.61221369	          9.15752139	          2.36138576	        -13.62350200	         18.25704096	         18.10055074	         49.95991446	         86.51662706	         86.51662706	          0.19887408	          0.05000028	          0.15828554	          0.05000024	          0.05000018	          0.05000027	          0.13247549	          0.05000052	          0.12131629	          0.05000008	          0.05000016	          0.07909194	          0.13106543	          0.29183602	          0.23362758	          0.14692566	          0.06062765	          0.06062812	          0.06753031	          0.14249172	          0.13643657	          0.15822196	          0.05000084	          0.05000043	          0.33134855	          0.20368383	          0.16636413	          0.06062807	          0.24837998	          0.24522464	          0.21876675	          0.05000004	          0.05000008	          0.05000000	          0.05000035	          0.05000064	          0.05000041	          0.59669120	          0.41155578	          0.23794470	          0.51702571	          0.58294727	          0.40499234	          0.05000001	          0.09932538	          0.08914123	          0.09983550	          0.06063297	          0.06063063	          0.13557222	          0.09635304	          0.07065355	          0.06062604	          0.06063001	          0.07351471	          0.05000043	          0.06073223	          0.22125313	          0.18400104	          0.35370502	          0.13571737	          0.15642346	          0.12680126	          0.07410682	          0.05001266	          0.06062449	          0.06066163	          0.07351469	          0.25717619	          0.40328515	          0.06064455	          0.07010171	          0.06062841	          0.23791046	          0.05000108	          0.05000150	          0.06905407	          0.11520577	          0.17324242	          0.05000000	          0.11813860	          0.14855918	          0.15658867	          0.46153038	          0.47687806	          0.33867252	          0.72249606	          0.52113460	          0.33502638	          0.07213695	          0.06062805	          0.05854779	
          1.93854027	         -2.91593301	          1.26341884	         -9.47670325	          2.43344246	          0.84880949	          0.00209782	         32.03790605	          1.35451288	          0.85713025	        -16.64284838	         -3.72454588	          7.13497338	        -16.84514443	        -20.28283741	          8.15140773	        -15.15348102	         -2.72644902	         19.12356795	         -0.00782727	          0.55344084	         -0.19861640	         30.15266526	          0.59248965	          0.78477893	          3.92341100	        -17.02777714	        -13.60640226	          9.29045103	          1.71058105	        -13.70062112	         18.35141492	         17.92244816	         51.23202152	         86.51662706	         86.51662706	          0.27589533	          0.33393352	          0.44891656	          0.17489278	          0.22458009	          0.27848887	          0.10925286	          0.08906798	          0.10161229	          0.07351509	          0.05027879	          0.06522733	          0.10808996	          0.24067785	          0.19267339	          0.15892686	          0.05000022	          0.05000152	          0.05569263	          0.27436627	          0.21879400	          0.18073043	          0.05000010	          0.05000009	          0.28802529	          0.16797886	          0.31726253	          0.05000012	          0.20483954	          0.20223736	          0.18041746	          0.05000006	          0.05000015	          0.05000003	          0.05000004	          0.06062794	          0.06062783	          0.73845351	          0.42843209	          0.22123346	          0.73896569	          0.69553951	          0.54115953	          0.05522864	          0.08914474	          0.07351495	          0.31097382	          0.05000427	          0.05000226	          0.20827285	          0.07946270	          0.05826856	          0.05000235	          0.05000179	          0.06062782	          0.05000019	          0.05008676	          0.18246796	          0.18681474	          0.29170129	          0.11192659	          0.12900287	          0.10457350	          0.07342092	          0.05000144	          0.05000343	          0.05002839	          0.06062790	          0.21209381	          0.40431378	          0.05001379	          0.05781329	          0.05000050	          0.19620526	          0.08914120	          0.08914106	          0.05694917	          0.09501043	          0.14287338	          0.05000004	          0.09742915	          0.12251711	          0.12913903	          0.38062505	          0.40843533	          0.29813321	          0.70802371	          0.63294164	          0.27629702	          0.09812495	          0.05000008	          0.05000009	
          1.95129382	         -2.90532010	          1.20231245	         -9.51541937	          2.45405530	          0.84684822	          0.00168267	         31.16132922	          1.63536191	          1.11443129	        -16.23617746	         -3.82864343	          6.96447357	        -17.69512676	        -22.70511855	          7.55255083	        -16.93908411	         -3.10747030	         19.16485283	         -0.01696232	          0.40314439	         -0.20949235	         27.56363729	          0.81938278	          0.58218458	          3.98741489	        -18.28420224	        -13.60672651	          9.59455137	          1.10803845	        -13.76486817	         18.39119449	         17.57480738	         52.36852503	         86.51662706	         86.51662706	          0.37327013	          0.48429168	          0.61998063	          0.28454251	          0.32191484	          0.43142994	          0.09010107	          0.08913592	          0.08379992	          0.06062834	          0.05000030	          0.05380362	          0.08914211	          0.19848871	          0.21648248	          0.17654294	          0.05000020	          0.05002247	          0.08914530	          0.34583531	          0.26912369	          0.21700785	          0.05000011	          0.05000009	          0.23753517	          0.13853268	          0.31520463	          0.05000002	          0.29852535	          0.30694984	          0.26863490	          0.05000001	          0.05000002	          0.05000000	          0.05000001	          0.05000017	          0.05000010	          0.83657529	          0.35332883	          0.18245170	          0.77392991	          0.71357079	          0.61954949	          0.08419411	          0.07351785	          0.06062794	          0.25646100	          0.05000008	          0.05000002	          0.17259679	          0.06553319	          0.05000017	          0.05173987	          0.05000016	          0.05000026	          0.05000017	          0.05003305	          0.15460711	          0.15411610	          0.24056686	          0.09230651	          0.10638933	          0.08624209	          0.06064109	          0.05000039	          0.05000073	          0.05000040	          0.05000027	          0.17491424	          0.36338568	          0.05000005	          0.05000024	          0.05000008	          0.16181089	          0.07351526	          0.07351523	          0.07351914	          0.07835530	          0.11782798	          0.05000001	          0.08035005	          0.10104022	          0.10650131	          0.38632225	          0.33908933	          0.25979803	          0.58392470	          0.75725901	          0.22786306	          0.12914272	          0.05000001	          0.05000005	
